<svg xmlns="http://www.w3.org/2000/svg" width="126" height="60" viewBox="0 0 126 60" fill="none"><g clip-path="url(#clip0_8_830)"><path d="M84.0604 37.1671C84.0604 37.6712 83.6937 38.0551 83.1896 38.0551C82.6854 38.0551 82.313 37.6559 82.313 37.1671C82.313 36.6782 82.6968 36.2676 83.1896 36.2676C83.6823 36.2676 84.0604 36.6744 84.0604 37.1671ZM82.481 37.1671C82.481 37.5662 82.7866 37.9004 83.1896 37.9004C83.5925 37.9004 83.8981 37.5834 83.8981 37.1671C83.8981 36.7507 83.5887 36.4261 83.1896 36.4261C82.7904 36.4261 82.481 36.7603 82.481 37.1671ZM82.8515 36.682H83.2106C83.35 36.682 83.5658 36.7221 83.5658 36.9589C83.5658 37.1384 83.4321 37.2033 83.3099 37.2186L83.6231 37.6349H83.4187L83.1208 37.2282H83.0272V37.6349H82.8515V36.682ZM83.0253 36.8329V37.0888H83.201C83.2946 37.0888 83.3805 37.0716 83.3805 36.9589C83.3805 36.8462 83.2946 36.8329 83.201 36.8329H83.0253ZM101.173 37.1671C101.173 37.6712 100.807 38.0551 100.303 38.0551C99.7984 38.0551 99.426 37.6559 99.426 37.1671C99.426 36.6782 99.8099 36.2676 100.303 36.2676C100.795 36.2676 101.173 36.6744 101.173 37.1671ZM99.5941 37.1671C99.5941 37.5662 99.8996 37.9004 100.303 37.9004C100.706 37.9004 101.011 37.5834 101.011 37.1671C101.011 36.7507 100.702 36.4261 100.303 36.4261C99.9034 36.4261 99.5941 36.7603 99.5941 37.1671ZM99.9645 36.682H100.324C100.463 36.682 100.679 36.7221 100.679 36.9589C100.679 37.1384 100.545 37.2033 100.423 37.2186L100.736 37.6349H100.532L100.234 37.2282H100.14V37.6349H99.9645V36.682ZM100.14 36.8329V37.0888H100.316C100.41 37.0888 100.495 37.0716 100.495 36.9589C100.495 36.8462 100.41 36.8329 100.316 36.8329H100.14ZM116.421 37.1671C116.421 37.6712 116.054 38.0551 115.55 38.0551C115.046 38.0551 114.673 37.6559 114.673 37.1671C114.673 36.6782 115.057 36.2676 115.55 36.2676C116.042 36.2676 116.421 36.6744 116.421 37.1671ZM114.841 37.1671C114.841 37.5662 115.147 37.9004 115.55 37.9004C115.953 37.9004 116.258 37.5834 116.258 37.1671C116.258 36.7507 115.949 36.4261 115.55 36.4261C115.151 36.4261 114.841 36.7603 114.841 37.1671ZM115.21 36.682H115.569C115.708 36.682 115.924 36.7221 115.924 36.9589C115.924 37.1384 115.79 37.2033 115.668 37.2186L115.981 37.6349H115.777L115.479 37.2282H115.386V37.6349H115.21V36.682ZM115.386 36.8329V37.0888H115.561C115.655 37.0888 115.741 37.0716 115.741 36.9589C115.741 36.8462 115.655 36.8329 115.561 36.8329H115.386Z" fill="#1355E9"></path><path d="M118 26.3677C118 31.65 115.034 35.1868 114.303 35.9621C113.573 36.7375 112.124 37.9349 111.564 38.0552C111.003 37.9349 109.555 36.7375 108.826 35.9621C108.094 35.1868 105.129 31.65 105.129 26.3677C105.129 24.3816 105.499 22.7678 106.131 21.6678C107.707 22.5043 109.276 22.9283 111.564 22.9283C113.852 22.9283 115.422 22.5043 116.997 21.6678C117.63 22.7659 118 24.3816 118 26.3677Z" fill="#1355E9"></path><path d="M116.845 26.32C116.845 25.3021 116.686 23.824 116.333 23.2911L116.274 23.3255C115.313 23.8354 113.526 24.2785 111.564 24.2785C109.603 24.2785 107.754 23.801 106.794 23.2911C106.44 23.824 106.282 25.3021 106.282 26.32C106.282 31.0847 108.761 34.1441 109.099 34.5547C109.555 35.1123 111.257 36.642 111.564 36.7146C111.87 36.642 113.571 35.1123 114.03 34.5547C114.366 34.1422 116.845 31.0847 116.845 26.32ZM116.039 24.0665C116.356 24.5458 116.421 25.7814 116.394 26.6962C116.256 31.4208 114.091 33.7373 113.785 34.1097C113.375 34.612 111.841 36.0462 111.564 36.1187C111.285 36.0462 109.752 34.612 109.339 34.1097C109.034 33.7373 106.87 31.4208 106.733 26.6981C106.706 25.7814 106.769 24.5458 107.086 24.0684C107.953 24.5267 109.794 24.7884 111.562 24.7884C113.325 24.7884 115.17 24.5286 116.037 24.0684L116.039 24.0665ZM111.19 34.2969L111.18 33.8481C110.974 33.9283 110.81 34.2358 110.812 34.4878C110.812 34.5356 110.825 34.7323 110.919 34.7819C110.953 34.7991 110.98 34.7819 110.995 34.7571C111.064 34.654 111.049 34.4172 111.19 34.2969ZM111.675 33.3974C111.633 33.3439 111.545 33.2618 111.406 33.2217C111.318 33.195 111.318 33.2026 111.242 33.1739C111.259 33.596 111.28 34.1059 111.285 34.4057C111.293 34.6998 111.303 35.0627 111.303 35.1295C111.473 35.246 111.686 35.1486 111.686 35.1486C111.69 35.1009 111.729 34.6406 111.738 34.1422C111.74 33.9378 111.763 33.4833 111.675 33.3955V33.3974ZM111.919 32.6755C111.841 32.643 111.641 32.5667 111.545 32.5266C111.423 32.475 111.209 32.3661 111.123 32.3356C111.043 32.3088 110.909 32.2897 111.083 32.1981C111.077 32.0701 111.062 31.9823 111.056 31.8849C111.056 31.8066 111.043 31.713 111.035 31.6194C110.333 31.6252 110.05 32.7042 111.196 32.9906C111.364 33.0326 111.415 33.0498 111.484 33.0842C111.61 33.151 111.66 33.1911 111.719 33.2465C111.792 33.3153 111.835 33.4069 111.835 33.5292V34.0792C112.494 33.7354 112.559 32.9543 111.919 32.6755ZM111.771 31.7989C111.771 31.7092 111.782 31.5889 111.788 31.4972C111.79 31.4533 111.78 31.3139 111.782 31.2795C111.667 31.2489 111.665 31.2795 111.436 31.2566C111.312 31.2432 111.257 31.2279 111.154 31.2222C111.15 31.3062 111.158 31.5411 111.163 31.6137L111.179 31.8601V32.0529C111.179 32.0759 111.182 32.1828 111.184 32.2076C111.266 32.2516 111.339 32.3222 111.473 32.3757C111.566 32.4101 111.688 32.4693 111.778 32.4826C111.778 32.3986 111.774 32.2172 111.778 32.1293C111.78 31.9632 111.769 31.9689 111.772 31.7989H111.771ZM111.937 30.401C111.761 30.3628 111.667 30.3418 111.616 30.3361C111.31 30.2979 111.217 30.3036 110.963 30.2864L110.804 29.9198L110.625 29.4805C110.033 29.7097 109.966 30.8785 110.882 31.0542C111.278 31.1305 111.396 31.1229 111.517 31.1363C111.746 31.1611 111.996 31.1363 112.063 31.2356C112.185 31.4113 112.017 31.4437 111.937 31.5354C111.91 31.6022 111.91 31.6328 111.904 31.7283C111.889 31.8811 111.885 32.0338 111.883 32.1771C112.871 32.0778 113.163 30.6627 111.937 30.401ZM110.86 29.7135L111.06 30.1661L111.778 30.233V28.8446L110.961 28.7816L110.669 29.2495L110.86 29.7135ZM112.036 27.968C111.969 27.9528 111.906 27.9279 111.834 27.9088C111.667 27.8668 111.48 27.8344 111.276 27.8114C111.075 27.7962 110.89 27.7427 110.739 27.7121C109.651 27.4925 109.796 27.0208 109.863 26.8012C110.046 26.868 110.216 26.9101 110.399 26.933C110.613 26.9597 110.842 26.9674 111.043 26.8776C110.863 26.7229 110.428 26.6522 110.296 26.5319C110.296 26.5319 110.533 26.5014 110.93 26.5472C111.129 26.5701 111.379 26.4555 111.379 26.4555C111.232 26.1022 110.766 25.7738 109.903 25.917C108.715 26.1137 108.356 28.3194 110.798 28.6365C110.942 28.6555 111.221 28.6746 111.383 28.6918C111.637 28.7147 111.755 28.7147 111.904 28.7434C112.007 28.7625 112.284 29.1635 111.904 29.2036C111.904 29.2036 111.841 29.6295 111.95 30.0897C113.092 30.1069 113.569 28.3424 112.036 27.97V27.968ZM112.674 26.0965C112.548 26.1805 112.166 26.5243 112.017 26.5969C111.939 26.637 111.956 25.8884 111.956 25.8884C111.961 25.8272 111.765 25.6993 111.555 25.6134C111.53 25.6 111.496 25.5599 111.434 25.5312C111.11 25.4262 110.932 25.3575 110.942 25.6687C110.944 25.7184 110.921 25.7814 110.978 25.8769C110.978 25.8769 111.291 26.0297 111.429 26.2932C111.511 26.4498 111.534 26.5453 111.534 26.5453C111.534 26.5453 111.465 26.6026 111.264 26.6312C111.417 26.6809 111.547 26.7439 111.669 26.7668L111.784 26.891C111.694 26.9005 111.454 26.868 111.19 26.7821L111.23 26.9024C111.125 26.9884 111.077 27.0113 110.898 27.0304C110.888 27.2328 110.902 27.4543 110.932 27.6377L111.816 27.7847C111.887 27.7427 111.965 27.5861 111.975 27.5766C112.133 27.4085 112.433 27.0915 113.065 26.4785C113.304 26.2455 112.928 25.9246 112.676 26.0946L112.674 26.0965ZM110.621 26.1844C110.487 26.1022 110.403 26.087 110.403 26.087C110.403 26.087 110.672 25.9934 110.907 26.1194C110.907 26.1194 110.871 26.2302 110.793 26.2397C110.72 26.2493 110.672 26.2149 110.623 26.1844H110.621Z" fill="white"></path><path d="M102.936 33.5177H98.4005L98.4024 38.0552H91.1818V33.5177H86.6443V26.2818H91.1818V21.7443H98.4005V26.2818H102.936V33.5177Z" fill="#1355E9"></path><path d="M90.754 28.0044H93.7561C94.054 28.0063 94.2927 27.9204 94.4321 27.7752C94.6097 27.5938 94.6231 27.3207 94.3787 27.0209C93.9452 26.49 94.3195 25.982 94.7759 25.9992C95.2304 26.0183 95.6066 26.49 95.175 27.0209C94.9287 27.3207 94.942 27.5919 95.1215 27.7752C95.259 27.9185 95.4997 28.0063 95.7976 28.0063H98.878C98.5533 27.3035 98.4521 27.1164 97.8945 26.6351C97.1554 25.9954 95.7785 25.4053 94.8122 25.4053C93.5766 25.4053 92.4594 25.9075 91.6497 26.7173C91.2792 27.0877 90.9755 27.5232 90.7521 28.0044H90.754ZM92.0144 33.3669C92.3009 32.8284 93.5518 30.4966 93.9432 29.7652C94.3768 28.9516 93.9031 28.6117 93.2634 28.5735C92.6656 28.5391 91.6936 28.3787 90.6031 28.3539C90.4332 28.8275 90.3396 29.345 90.3396 29.8778C90.3396 31.2872 90.9927 32.5457 92.0144 33.3669ZM97.2967 33.5999C97.2967 33.5999 95.2858 30.6914 95.175 30.5023C95.0604 30.3152 94.9649 30.1987 94.7759 30.1987C94.5868 30.1987 94.4913 30.3133 94.3787 30.5023C94.2794 30.6685 92.6599 33.0212 92.2837 33.5674C93.0037 34.064 93.8745 34.3504 94.8141 34.3504C95.7537 34.3504 96.5882 34.0735 97.2967 33.5999ZM99.2866 29.8778C99.2866 29.3393 99.1931 28.8237 99.0193 28.3462C97.9002 28.3653 96.8995 28.5372 96.2903 28.5735C95.6467 28.6117 95.175 28.9535 95.6066 29.7652C96.0439 30.5768 97.4972 33.2982 97.5545 33.4127C98.6087 32.5935 99.2866 31.3159 99.2866 29.8798V29.8778Z" fill="white"></path><path d="M93.8859 27.42H91.8253C92.2798 26.8146 92.9406 26.3601 93.6396 26.2092C93.4123 27.0018 93.8859 27.0591 93.8859 27.42ZM97.7264 27.42C97.2069 26.9005 96.6111 26.3601 95.9102 26.2092C96.1375 27.0037 95.6639 27.061 95.6639 27.42H97.7264ZM94.7759 31.0485C94.6441 31.0485 93.1698 33.3764 93.1698 33.3764C93.6033 33.6018 94.1533 33.7163 94.7759 33.7163C95.3984 33.7163 95.9484 33.6037 96.3838 33.3764C96.3838 33.3764 94.9076 31.0485 94.7759 31.0485ZM96.3437 29.1788C96.1757 29.1979 96.0229 29.2151 96.1757 29.4997C96.3246 29.7823 97.7054 32.391 97.7054 32.391C98.3852 31.5412 98.8206 30.4813 98.5571 29.007C98.5571 29.007 96.4774 29.1769 96.3437 29.1769V29.1788ZM93.2061 29.1788C93.0743 29.1788 90.9946 29.0089 90.9946 29.0089C90.7292 30.4832 91.1646 31.5431 91.8444 32.3929C91.8444 32.3929 93.2252 29.7842 93.3779 29.5016C93.5269 29.217 93.3779 29.1979 93.2061 29.1808V29.1788Z" fill="#1355E9"></path><path d="M17.9821 34.9767H11.997L10.7997 38.0533H8L13.4924 24.3549H16.6339L22.1491 38.0552H19.1776L17.9802 34.9786L17.9821 34.9767ZM17.0826 32.6049L14.9877 27.1984L12.8927 32.6049H17.0807H17.0826ZM23.2109 27.8172H25.8177V29.2705C26.3524 28.18 27.3779 27.5384 28.7243 27.5384C31.0752 27.5384 32.5934 29.1845 32.5934 31.8562V38.0552H29.9866V32.242C29.9866 30.8517 29.196 29.9752 27.9127 29.9752C26.6293 29.9752 25.8177 30.8517 25.8177 32.242V38.0552H23.2109V27.8172ZM33.5559 27.8172H35.351V25.1665H38.0017V27.8172H40.7384V30.1241H38.0017V34.484C38.0017 35.4446 38.3875 35.8934 39.1552 35.8934C39.646 35.8934 40.1177 35.6795 40.3736 35.3816L41.529 37.3257C40.9733 37.8814 40.0108 38.3302 38.7503 38.3302C36.6783 38.3302 35.3529 37.0488 35.3529 34.547V30.1222H33.5578V27.8153L33.5559 27.8172ZM42.799 23.3503H45.4057V29.2705C45.9404 28.18 46.966 27.5384 48.3123 27.5384C50.6632 27.5384 52.1814 29.1845 52.1814 31.8562V38.0552H49.5746V32.242C49.5746 30.8517 48.784 29.9752 47.5007 29.9752C46.2174 29.9752 45.4057 30.8517 45.4057 32.242V38.0552H42.799V23.3503ZM53.5946 32.9257C53.5946 29.9542 55.7965 27.5403 58.7451 27.5403C61.6937 27.5403 63.9167 29.7842 63.9167 32.7347C63.9167 33.0766 63.8957 33.4833 63.8517 33.6533H56.2644C56.5413 35.0646 57.6108 36.0462 59.171 36.0462C60.2175 36.0462 61.0941 35.5974 61.6937 34.9786L63.0401 36.7738C62.2495 37.6503 60.7962 38.334 59.087 38.334C55.9016 38.334 53.5946 35.9182 53.5946 32.9276V32.9257ZM56.3293 31.8352H61.224C60.9031 30.4679 59.9845 29.7403 58.7871 29.7403C57.5898 29.7403 56.6502 30.5958 56.3293 31.8352ZM65.3719 38.0552V27.8172H67.9786V29.3774C68.5134 28.266 69.5179 27.5384 70.8642 27.5384C72.4245 27.5384 73.6219 28.308 74.2196 29.6753C74.7543 28.4569 75.7378 27.5384 77.3611 27.5384C79.733 27.5384 81.2932 29.1196 81.2932 31.8562V38.0552H78.6635V32.242C78.6635 30.8517 77.8939 29.9752 76.6545 29.9752C75.4151 29.9752 74.6245 30.8517 74.6245 32.242V38.0552H72.0177V32.242C72.0177 30.8517 71.2481 29.9752 70.0087 29.9752C68.7693 29.9752 67.9786 30.8517 67.9786 32.242V38.0552H65.3719Z" fill="#1355E9"></path></g><defs><clipPath id="clip0_8_830"><rect width="110" height="16.6642" fill="white" transform="translate(8 21.6678)"></rect></clipPath></defs></svg>